<mxfile host="app.diagrams.net" modified="2024-05-01T22:23:54.581Z" agent="Mozilla/5.0 (Windows NT 10.0; Win64; x64) AppleWebKit/537.36 (KHTML, like Gecko) Chrome/124.0.0.0 Safari/537.36" etag="pkZrY56cwMwkahMW_4GS" version="24.3.1" type="device">
  <diagram id="bc47vRQSer-DN1HRI0ml" name="Page-1">
    <mxGraphModel dx="882" dy="578" grid="1" gridSize="10" guides="1" tooltips="1" connect="1" arrows="1" fold="1" page="1" pageScale="1" pageWidth="850" pageHeight="1100" math="0" shadow="0">
      <root>
        <mxCell id="0" />
        <mxCell id="1" parent="0" />
        <mxCell id="I8zNn8IP8U8jx88QD11o-5" style="edgeStyle=orthogonalEdgeStyle;rounded=0;orthogonalLoop=1;jettySize=auto;html=1;exitX=1;exitY=0.5;exitDx=0;exitDy=0;entryX=0;entryY=0.5;entryDx=0;entryDy=0;" edge="1" parent="1" source="EtgMitFuruBxjGAC0nHd-1" target="I8zNn8IP8U8jx88QD11o-3">
          <mxGeometry relative="1" as="geometry" />
        </mxCell>
        <mxCell id="EtgMitFuruBxjGAC0nHd-1" value="" style="swimlane;startSize=0;" parent="1" vertex="1">
          <mxGeometry x="40" y="40" width="360" height="360" as="geometry" />
        </mxCell>
        <mxCell id="EtgMitFuruBxjGAC0nHd-3" value="Web servers" style="rounded=1;whiteSpace=wrap;html=1;" parent="EtgMitFuruBxjGAC0nHd-1" vertex="1">
          <mxGeometry x="40" y="160" width="80" height="40" as="geometry" />
        </mxCell>
        <mxCell id="I8zNn8IP8U8jx88QD11o-1" value="" style="swimlane;startSize=0;" vertex="1" parent="EtgMitFuruBxjGAC0nHd-1">
          <mxGeometry x="160" y="40" width="160" height="280" as="geometry" />
        </mxCell>
        <mxCell id="EtgMitFuruBxjGAC0nHd-4" value="Metrics 1" style="rounded=1;whiteSpace=wrap;html=1;" parent="I8zNn8IP8U8jx88QD11o-1" vertex="1">
          <mxGeometry x="40" y="40" width="80" height="40" as="geometry" />
        </mxCell>
        <mxCell id="EtgMitFuruBxjGAC0nHd-5" value="Metrics 2" style="rounded=1;whiteSpace=wrap;html=1;" parent="I8zNn8IP8U8jx88QD11o-1" vertex="1">
          <mxGeometry x="40" y="120" width="80" height="40" as="geometry" />
        </mxCell>
        <mxCell id="EtgMitFuruBxjGAC0nHd-6" value="Metrics 3" style="rounded=1;whiteSpace=wrap;html=1;" parent="I8zNn8IP8U8jx88QD11o-1" vertex="1">
          <mxGeometry x="40" y="200" width="80" height="40" as="geometry" />
        </mxCell>
        <mxCell id="I8zNn8IP8U8jx88QD11o-2" value="Collection agent" style="text;html=1;align=center;verticalAlign=middle;whiteSpace=wrap;rounded=0;" vertex="1" parent="I8zNn8IP8U8jx88QD11o-1">
          <mxGeometry width="160" height="30" as="geometry" />
        </mxCell>
        <mxCell id="EtgMitFuruBxjGAC0nHd-7" value="Metrics source" style="text;html=1;align=center;verticalAlign=middle;whiteSpace=wrap;rounded=0;" parent="1" vertex="1">
          <mxGeometry x="40" y="40" width="160" height="40" as="geometry" />
        </mxCell>
        <mxCell id="I8zNn8IP8U8jx88QD11o-6" style="edgeStyle=orthogonalEdgeStyle;rounded=0;orthogonalLoop=1;jettySize=auto;html=1;exitX=1;exitY=0.5;exitDx=0;exitDy=0;entryX=0;entryY=0.5;entryDx=0;entryDy=0;" edge="1" parent="1" source="I8zNn8IP8U8jx88QD11o-3" target="I8zNn8IP8U8jx88QD11o-4">
          <mxGeometry relative="1" as="geometry" />
        </mxCell>
        <mxCell id="I8zNn8IP8U8jx88QD11o-3" value="Load balancer" style="rounded=1;whiteSpace=wrap;html=1;" vertex="1" parent="1">
          <mxGeometry x="480" y="190" width="120" height="60" as="geometry" />
        </mxCell>
        <mxCell id="I8zNn8IP8U8jx88QD11o-4" value="Metrics collectors" style="rounded=1;whiteSpace=wrap;html=1;" vertex="1" parent="1">
          <mxGeometry x="680" y="190" width="120" height="60" as="geometry" />
        </mxCell>
        <mxCell id="I8zNn8IP8U8jx88QD11o-7" value="Push messages" style="text;html=1;align=center;verticalAlign=middle;whiteSpace=wrap;rounded=0;" vertex="1" parent="1">
          <mxGeometry x="400" y="190" width="80" height="30" as="geometry" />
        </mxCell>
      </root>
    </mxGraphModel>
  </diagram>
</mxfile>
